<svg width="103" height="18" viewBox="0 0 103 18" fill="none" xmlns="http://www.w3.org/2000/svg">
<path d="M4.74066 14.2383H0.130351V1.23295H4.77876C6.08692 1.23295 7.21304 1.49332 8.15711 2.01404C9.10119 2.53053 9.82724 3.27351 10.3353 4.24299C10.8475 5.21247 11.1036 6.37245 11.1036 7.72295C11.1036 9.07768 10.8475 10.2419 10.3353 11.2156C9.82724 12.1893 9.09696 12.9365 8.14441 13.4573C7.1961 13.978 6.06152 14.2383 4.74066 14.2383ZM2.88003 11.8824H4.62635C5.43919 11.8824 6.12291 11.7384 6.6775 11.4506C7.23632 11.1585 7.65544 10.7076 7.93485 10.098C8.2185 9.48409 8.36032 8.69243 8.36032 7.72295C8.36032 6.76194 8.2185 5.97662 7.93485 5.36699C7.65544 4.75736 7.23844 4.30861 6.68385 4.02073C6.12926 3.73285 5.44554 3.58891 4.6327 3.58891H2.88003V11.8824ZM15.8711 14.4225C15.2488 14.4225 14.6942 14.3145 14.2074 14.0986C13.7205 13.8785 13.3352 13.5546 13.0516 13.127C12.7722 12.6952 12.6325 12.1576 12.6325 11.5141C12.6325 10.9722 12.732 10.5171 12.9309 10.1488C13.1299 9.78044 13.4009 9.48409 13.7438 9.25972C14.0867 9.03534 14.4762 8.866 14.9122 8.75169C15.3525 8.63739 15.814 8.55695 16.2966 8.51038C16.8639 8.45111 17.3211 8.39608 17.6683 8.34528C18.0154 8.29024 18.2673 8.2098 18.4239 8.10396C18.5806 7.99813 18.6589 7.84149 18.6589 7.63404V7.59594C18.6589 7.19376 18.5319 6.88259 18.2779 6.66245C18.0281 6.44231 17.6725 6.33223 17.211 6.33223C16.7242 6.33223 16.3368 6.44019 16.0489 6.6561C15.7611 6.86778 15.5705 7.13449 15.4774 7.45624L12.9754 7.25303C13.1024 6.66033 13.3522 6.14808 13.7247 5.71626C14.0973 5.2802 14.5778 4.94575 15.1662 4.71291C15.7589 4.47583 16.4448 4.3573 17.2237 4.3573C17.7656 4.3573 18.2842 4.4208 18.7796 4.5478C19.2791 4.67481 19.7215 4.87167 20.1068 5.13838C20.4963 5.40509 20.8032 5.74801 21.0276 6.16713C21.2519 6.58201 21.3641 7.07945 21.3641 7.65944V14.2383H18.7986V12.8857H18.7224C18.5658 13.1905 18.3562 13.4594 18.0937 13.6922C17.8312 13.9208 17.5158 14.1008 17.1475 14.232C16.7792 14.359 16.3537 14.4225 15.8711 14.4225ZM16.6459 12.5555C17.0438 12.5555 17.3952 12.4772 17.7 12.3206C18.0048 12.1597 18.244 11.9438 18.4176 11.6728C18.5912 11.4019 18.678 11.095 18.678 10.752V9.71694C18.5933 9.77197 18.4769 9.82278 18.3287 9.86934C18.1847 9.91168 18.0218 9.9519 17.8397 9.99C17.6577 10.0239 17.4756 10.0556 17.2936 10.0853C17.1115 10.1107 16.9464 10.1339 16.7983 10.1551C16.4808 10.2017 16.2035 10.2758 15.9664 10.3774C15.7293 10.479 15.5451 10.6166 15.4139 10.7901C15.2827 10.9595 15.217 11.1712 15.217 11.4252C15.217 11.7935 15.3504 12.075 15.6171 12.2698C15.8881 12.4603 16.231 12.5555 16.6459 12.5555ZM23.4629 14.2383V4.4843H26.1681V14.2383H23.4629ZM24.8219 3.22694C24.4197 3.22694 24.0746 3.09359 23.7868 2.82688C23.5031 2.55593 23.3613 2.23207 23.3613 1.85528C23.3613 1.48273 23.5031 1.1631 23.7868 0.896389C24.0746 0.625443 24.4197 0.48997 24.8219 0.48997C25.224 0.48997 25.567 0.625443 25.8506 0.896389C26.1385 1.1631 26.2824 1.48273 26.2824 1.85528C26.2824 2.23207 26.1385 2.55593 25.8506 2.82688C25.567 3.09359 25.224 3.22694 24.8219 3.22694ZM31.0404 1.23295V14.2383H28.3352V1.23295H31.0404ZM34.8775 17.8961C34.5346 17.8961 34.2129 17.8686 33.9123 17.8136C33.6159 17.7628 33.3704 17.6971 33.1757 17.6167L33.7853 15.5973C34.1028 15.6947 34.3886 15.7476 34.6426 15.7561C34.9008 15.7645 35.1231 15.7053 35.3094 15.5783C35.4999 15.4512 35.6544 15.2353 35.7729 14.9305L35.9317 14.5178L32.4327 4.4843H35.2776L37.297 11.6474H37.3986L39.437 4.4843H42.301L38.5099 15.2925C38.3279 15.8174 38.0802 16.2747 37.7669 16.6642C37.4579 17.0579 37.0663 17.3606 36.5921 17.5722C36.118 17.7882 35.5464 17.8961 34.8775 17.8961Z" fill="#18181B"/>
<path d="M52.3599 5.43684C52.271 5.1278 52.1461 4.85473 51.9852 4.61766C51.8243 4.37635 51.6275 4.17314 51.3946 4.00803C51.166 3.83869 50.9035 3.70957 50.6072 3.62066C50.3151 3.53176 49.9912 3.48731 49.6356 3.48731C48.9709 3.48731 48.3867 3.65241 47.8829 3.98263C47.3834 4.31284 46.9939 4.79335 46.7145 5.42414C46.4351 6.05071 46.2954 6.81697 46.2954 7.72295C46.2954 8.62892 46.4329 9.39942 46.7081 10.0345C46.9833 10.6695 47.3728 11.1542 47.8766 11.4887C48.3804 11.8189 48.9752 11.984 49.661 11.984C50.2833 11.984 50.8146 11.8739 51.2549 11.6538C51.6994 11.4294 52.0381 11.114 52.271 10.7076C52.508 10.3012 52.6266 9.82066 52.6266 9.26607L53.1854 9.34862H49.8325V7.27843H55.2747V8.9168C55.2747 10.0599 55.0333 11.042 54.5507 11.8633C54.0681 12.6804 53.4034 13.3112 52.5567 13.7557C51.71 14.196 50.7406 14.4162 49.6483 14.4162C48.429 14.4162 47.358 14.1473 46.4351 13.6097C45.5121 13.0678 44.7925 12.2994 44.276 11.3045C43.7637 10.3054 43.5076 9.12001 43.5076 7.74835C43.5076 6.6942 43.66 5.75436 43.9648 4.92882C44.2738 4.09905 44.7057 3.39629 45.2603 2.82053C45.8148 2.24477 46.4605 1.8066 47.1971 1.50602C47.9337 1.20544 48.7317 1.05515 49.5912 1.05515C50.3278 1.05515 51.0136 1.1631 51.6486 1.37901C52.2837 1.59069 52.8467 1.89127 53.3378 2.28075C53.8331 2.67024 54.2374 3.13381 54.5507 3.67146C54.864 4.20489 55.0651 4.79335 55.154 5.43684H52.3599ZM60.0707 14.4225C59.4484 14.4225 58.8938 14.3145 58.4069 14.0986C57.9201 13.8785 57.5348 13.5546 57.2512 13.127C56.9718 12.6952 56.8321 12.1576 56.8321 11.5141C56.8321 10.9722 56.9316 10.5171 57.1305 10.1488C57.3295 9.78044 57.6004 9.48409 57.9434 9.25972C58.2863 9.03534 58.6758 8.866 59.1118 8.75169C59.5521 8.63739 60.0136 8.55695 60.4962 8.51038C61.0635 8.45111 61.5207 8.39608 61.8678 8.34528C62.215 8.29024 62.4669 8.2098 62.6235 8.10396C62.7802 7.99813 62.8585 7.84149 62.8585 7.63404V7.59594C62.8585 7.19376 62.7315 6.88259 62.4775 6.66245C62.2277 6.44231 61.8721 6.33223 61.4106 6.33223C60.9238 6.33223 60.5364 6.44019 60.2485 6.6561C59.9606 6.86778 59.7701 7.13449 59.677 7.45624L57.175 7.25303C57.302 6.66033 57.5518 6.14808 57.9243 5.71626C58.2969 5.2802 58.7774 4.94575 59.3658 4.71291C59.9585 4.47583 60.6444 4.3573 61.4233 4.3573C61.9652 4.3573 62.4838 4.4208 62.9791 4.5478C63.4787 4.67481 63.9211 4.87167 64.3064 5.13838C64.6958 5.40509 65.0028 5.74801 65.2271 6.16713C65.4515 6.58201 65.5637 7.07945 65.5637 7.65944V14.2383H62.9982V12.8857H62.922C62.7653 13.1905 62.5558 13.4594 62.2933 13.6922C62.0308 13.9208 61.7154 14.1008 61.3471 14.232C60.9788 14.359 60.5533 14.4225 60.0707 14.4225ZM60.8454 12.5555C61.2434 12.5555 61.5948 12.4772 61.8996 12.3206C62.2044 12.1597 62.4436 11.9438 62.6172 11.6728C62.7908 11.4019 62.8775 11.095 62.8775 10.752V9.71694C62.7929 9.77197 62.6764 9.82278 62.5283 9.86934C62.3843 9.91168 62.2213 9.9519 62.0393 9.99C61.8573 10.0239 61.6752 10.0556 61.4932 10.0853C61.3111 10.1107 61.146 10.1339 60.9979 10.1551C60.6803 10.2017 60.403 10.2758 60.166 10.3774C59.9289 10.479 59.7447 10.6166 59.6135 10.7901C59.4823 10.9595 59.4166 11.1712 59.4166 11.4252C59.4166 11.7935 59.55 12.075 59.8167 12.2698C60.0876 12.4603 60.4306 12.5555 60.8454 12.5555ZM67.6625 14.2383V4.4843H70.2407V6.20523H70.355C70.5582 5.6337 70.8969 5.18283 71.371 4.85262C71.8452 4.5224 72.4125 4.3573 73.0729 4.3573C73.7418 4.3573 74.3112 4.52452 74.7812 4.85897C75.2511 5.18918 75.5644 5.63794 75.721 6.20523H75.8226C76.0216 5.6464 76.3814 5.19977 76.9021 4.86532C77.4271 4.52664 78.0473 4.3573 78.7628 4.3573C79.673 4.3573 80.4117 4.64729 80.979 5.22729C81.5506 5.80304 81.8363 6.62011 81.8363 7.6785V14.2383H79.1374V8.21192C79.1374 7.67003 78.9935 7.26361 78.7056 6.99266C78.4178 6.72172 78.0579 6.58625 77.6261 6.58625C77.135 6.58625 76.7519 6.74289 76.4767 7.05617C76.2015 7.36521 76.0639 7.77375 76.0639 8.28177V14.2383H73.4412V8.15477C73.4412 7.67638 73.3037 7.29536 73.0285 7.01172C72.7575 6.72807 72.3998 6.58625 71.9553 6.58625C71.6547 6.58625 71.3837 6.66245 71.1424 6.81486C70.9054 6.96303 70.717 7.17259 70.5773 7.44354C70.4376 7.71025 70.3677 8.02353 70.3677 8.38338V14.2383H67.6625ZM88.4184 14.4289C87.4151 14.4289 86.5514 14.2256 85.8275 13.8192C85.1078 13.4086 84.5532 12.8286 84.1637 12.0792C83.7742 11.3257 83.5795 10.4345 83.5795 9.40577C83.5795 8.40243 83.7742 7.52186 84.1637 6.76405C84.5532 6.00625 85.1014 5.41568 85.8084 4.99232C86.5197 4.56897 87.3537 4.3573 88.3104 4.3573C88.9539 4.3573 89.553 4.46102 90.1076 4.66846C90.6664 4.87167 91.1533 5.1786 91.5681 5.58925C91.9873 5.9999 92.3132 6.51639 92.5461 7.13872C92.7789 7.75682 92.8953 8.48075 92.8953 9.31052V10.0535H84.659V8.37703H90.3489C90.3489 7.98754 90.2642 7.64251 90.0949 7.34193C89.9255 7.04135 89.6906 6.80639 89.39 6.63705C89.0936 6.46347 88.7486 6.37669 88.3549 6.37669C87.9442 6.37669 87.5802 6.47194 87.2626 6.66245C86.9494 6.84872 86.7038 7.10062 86.526 7.41813C86.3482 7.73141 86.2572 8.08068 86.2529 8.46593V10.0599C86.2529 10.5425 86.3419 10.9595 86.5197 11.3109C86.7017 11.6622 86.9578 11.9332 87.288 12.1237C87.6183 12.3142 88.0099 12.4095 88.4628 12.4095C88.7634 12.4095 89.0386 12.3671 89.2884 12.2825C89.5382 12.1978 89.752 12.0708 89.9298 11.9014C90.1076 11.7321 90.243 11.5247 90.3362 11.2791L92.8382 11.4442C92.7112 12.0454 92.4508 12.5703 92.0571 13.0191C91.6676 13.4636 91.1638 13.8108 90.5457 14.0605C89.9319 14.3061 89.2228 14.4289 88.4184 14.4289ZM102.776 7.26573L100.3 7.41813C100.257 7.20646 100.166 7.01595 100.027 6.84661C99.887 6.67303 99.7029 6.53544 99.4742 6.43384C99.2499 6.328 98.981 6.27508 98.6678 6.27508C98.2486 6.27508 97.8951 6.36399 97.6073 6.54179C97.3194 6.71537 97.1754 6.94821 97.1754 7.24033C97.1754 7.47317 97.2686 7.67003 97.4549 7.8309C97.6411 7.99178 97.9608 8.1209 98.4137 8.21827L100.179 8.57389C101.127 8.76863 101.834 9.08191 102.3 9.51373C102.766 9.94555 102.999 10.5128 102.999 11.2156C102.999 11.8549 102.81 12.4158 102.433 12.8984C102.061 13.3811 101.549 13.7578 100.897 14.0288C100.249 14.2955 99.5018 14.4289 98.6551 14.4289C97.3638 14.4289 96.3351 14.16 95.5688 13.6224C94.8068 13.0805 94.3601 12.3438 94.2289 11.4125L96.8897 11.2728C96.9701 11.6665 97.1649 11.9671 97.4739 12.1745C97.783 12.3777 98.1788 12.4793 98.6614 12.4793C99.1356 12.4793 99.5166 12.3883 99.8045 12.2063C100.097 12.02 100.245 11.7808 100.249 11.4887C100.245 11.2431 100.141 11.042 99.9378 10.8854C99.7346 10.7245 99.4213 10.6017 98.998 10.5171L97.3088 10.1805C96.3563 9.99 95.6471 9.65979 95.1814 9.18986C94.72 8.71994 94.4893 8.1209 94.4893 7.39273C94.4893 6.76617 94.6586 6.2264 94.9973 5.77341C95.3402 5.32042 95.8207 4.97116 96.4388 4.72561C97.0611 4.48007 97.7893 4.3573 98.6233 4.3573C99.8553 4.3573 100.825 4.61766 101.532 5.13838C102.243 5.6591 102.658 6.36822 102.776 7.26573Z" fill="#6D28D9"/>
</svg>
